HIERARCHY
ROOT root
{
	OFFSET	0	13.1	24.9
	CHANNELS 6  Xposition Yposition Zposition Xrotation Yrotation Zrotation
	JOINT spine_1
	{
		OFFSET	0	9.99999	0
		CHANNELS 3  Xrotation Yrotation Zrotation
		JOINT spine_2
		{
			OFFSET	0	112	-10
			CHANNELS 3  Xrotation Yrotation Zrotation
			JOINT spine_3
			{
				OFFSET	0	206.5	19.3
				CHANNELS 3  Xrotation Yrotation Zrotation
				JOINT spine_4
				{
					OFFSET	0	110.4	14.6
					CHANNELS 3  Xrotation Yrotation Zrotation
					JOINT neck_1
					{
						OFFSET	0	71.8	-50.3
						CHANNELS 3  Xrotation Yrotation Zrotation
						JOINT neck_2
						{
							OFFSET	0	86.2	-25.8
							CHANNELS 3  Xrotation Yrotation Zrotation
							JOINT head_ee
							{
								OFFSET	0	179.8	-8.7
								CHANNELS 3  Xrotation Yrotation Zrotation
								End Site
								{
									OFFSET	1	0	0
								}
							}
						}
					}
					JOINT left_clavicle
					{
						OFFSET	-43.2	22.4	-70.8
						CHANNELS 3  Xrotation Yrotation Zrotation
						JOINT left_shoulder
						{
							OFFSET	-93.9	-5.79999	48.7
							CHANNELS 3  Xrotation Yrotation Zrotation
							JOINT left_elbow
							{
								OFFSET	-291.4	-30.8	15.2
								CHANNELS 3  Xrotation Yrotation Zrotation
								JOINT left_lowarm_twist
								{
									OFFSET	-110.7	-3.89999	13.6
									CHANNELS 3  Xrotation Yrotation Zrotation
									JOINT left_hand
									{
										OFFSET	-110.7	-3.89999	13.6
										CHANNELS 3  Xrotation Yrotation Zrotation
										JOINT left_ee
										{
											OFFSET	-80.8	-5.10001	12.1
											CHANNELS 3  Xrotation Yrotation Zrotation
											End Site
											{
												OFFSET	1	0	0
											}
										}
									}
								}
							}
						}
					}
					JOINT right_clavicle
					{
						OFFSET	43.2	22.4	-70.8
						CHANNELS 3  Xrotation Yrotation Zrotation
						JOINT right_shoulder
						{
							OFFSET	93.9	-5.79999	48.7
							CHANNELS 3  Xrotation Yrotation Zrotation
							JOINT right_elbow
							{
								OFFSET	291.4	-30.8	15.2
								CHANNELS 3  Xrotation Yrotation Zrotation
								JOINT right_lowarm_twist
								{
									OFFSET	110.7	-3.89999	13.6
									CHANNELS 3  Xrotation Yrotation Zrotation
									JOINT right_hand
									{
										OFFSET	110.7	-3.89999	13.6
										CHANNELS 3  Xrotation Yrotation Zrotation
										JOINT right_ee
										{
											OFFSET	80.8	-5.10001	12.1
											CHANNELS 3  Xrotation Yrotation Zrotation
											End Site
											{
												OFFSET	1	0	0
											}
										}
									}
								}
							}
						}
					}
				}
			}
		}
	}
	JOINT left_hip
	{
		OFFSET	-82.8	-127.5	0.300001
		CHANNELS 3  Xrotation Yrotation Zrotation
		JOINT left_knee
		{
			OFFSET	-28.2	-396.7	2.2
			CHANNELS 3  Xrotation Yrotation Zrotation
			JOINT left_ankle
			{
				OFFSET	-11.7	-411.3	35.4
				CHANNELS 3  Xrotation Yrotation Zrotation
				JOINT left_toes
				{
					OFFSET	0	-60	-88.6
					CHANNELS 3  Xrotation Yrotation Zrotation
					JOINT left_foot_ee
					{
						OFFSET	-22.5	-16.5	-42.2
						CHANNELS 3  Xrotation Yrotation Zrotation
						End Site
						{
							OFFSET	1	0	0
						}
					}
				}
			}
		}
	}
	JOINT right_hip
	{
		OFFSET	82.8	-127.5	0.300001
		CHANNELS 3  Xrotation Yrotation Zrotation
		JOINT right_knee
		{
			OFFSET	28.2	-396.7	2.2
			CHANNELS 3  Xrotation Yrotation Zrotation
			JOINT right_ankle
			{
				OFFSET	11.7	-411.3	35.4
				CHANNELS 3  Xrotation Yrotation Zrotation
				JOINT right_toes
				{
					OFFSET	0	-60	-88.6
					CHANNELS 3  Xrotation Yrotation Zrotation
					JOINT right_foot_ee
					{
						OFFSET	22.5	-16.5	-42.2
						CHANNELS 3  Xrotation Yrotation Zrotation
						End Site
						{
							OFFSET	1	0	0
						}
					}
				}
			}
		}
	}
}
MOTION
Frames: 8
Frame Time: 0.02
2897.33 698.79 -556.717 177.969 -56.9562 -175.329 0.957784 -0.548046 -3.6528 0.965151 -0.314659 -3.68022 0.987295 0.402991 -3.67161 0.968532 -0.181521 -3.68917 -15.0685 15.2471 10.3361 -15.2293 23.1137 14.839 -0.0 0.0 -0.0 9.36253 13.2545 17.3317 -43.9735 -39.104 58.8078 0.925586 -24.6315 0.202081 -7.36902 -0.317168 0.886404 -1.08507 17.0471 0.311424 -0.0 0.0 -0.0 3.95572 17.6646 -6.394 -6.40284 13.2686 -59.5714 1.56318 37.7499 -0.534464 -55.9733 4.78665 -4.95828 -2.05604 1.90716 14.7615 0.0 0.0 0.0 31.2672 21.5729 -13.0395 2.26368 -0.0998147 -0.33299 -23.3808 4.78795 3.52487 30.472 -0.0 -0.0 -0.0 0.0 -0.0 -12.8785 -0.412522 2.62421 -18.6748 -0.309055 -2.83648 15.8153 22.4416 2.53594 -18.8991 0.0 0.0 0.0 0.0 0.0 
2923.67 704.993 -552.318 179.366 -56.4457 -173.444 0.890771 -0.668104 -3.79511 0.898682 -0.425439 -3.82987 0.929489 0.326934 -3.83952 0.909033 -0.283088 -3.84299 -15.0743 15.167 10.4914 -15.2151 22.8691 14.9528 -0.0 0.0 -0.0 8.52069 12.5833 15.912 -40.6951 -39.944 61.1308 0.935223 -24.8571 0.206115 -9.09952 -0.408024 1.08822 -1.56086 17.1116 -2.55706 -0.0 0.0 -0.0 3.95677 18.2598 -6.34336 -8.03164 12.539 -60.3092 1.42882 35.2887 -0.454488 -55.2925 4.70379 -4.93068 -2.00083 1.81034 14.3336 0.0 0.0 0.0 30.8461 21.9238 -12.7746 3.04709 -0.137419 -0.447298 -23.9442 6.15313 3.60493 31.616 -0.0 -0.0 -0.0 0.0 -0.0 -12.3572 0.048397 2.63637 -18.9112 -0.307006 -2.87268 14.391 22.4909 2.32467 -18.9605 0.0 0.0 0.0 0.0 0.0 
2953.42 711.38 -549.28 179.384 -55.7836 -173.178 0.932865 -0.787575 -3.89426 0.941139 -0.538374 -3.9364 0.980662 0.233076 -3.96615 0.958934 -0.395728 -3.95326 -15.7713 15.5033 12.9442 -15.7488 22.2673 17.4536 -0.0 0.0 -0.0 7.55256 11.2672 14.2994 -35.3497 -41.8272 63.9998 0.936978 -24.8981 0.206853 -10.0796 -0.462179 1.20129 -1.56332 18.1871 -2.0728 -0.0 0.0 -0.0 3.71583 18.0932 -5.84151 -10.192 12.3057 -60.6106 1.34475 33.6678 -0.40689 -54.6682 4.62811 -4.90451 -1.7769 5.2172 14.3377 0.0 0.0 0.0 28.4205 22.795 -12.0414 4.65213 -0.219337 -0.679864 -23.9864 7.02173 3.60931 30.1938 -0.0 -0.0 -0.0 0.0 -0.0 -11.6748 1.84699 3.02012 -19.6109 -0.300066 -2.97982 13.0649 20.3634 2.08018 -19.2376 0.0 0.0 0.0 0.0 0.0 
2989.0 710.703 -547.765 178.27 -55.4697 -174.634 0.959997 -0.87697 -4.16207 0.969425 -0.610591 -4.20932 1.01715 0.212189 -4.24801 0.992268 -0.460754 -4.22831 -15.4806 15.7987 13.052 -15.4521 22.691 17.592 -0.0 0.0 -0.0 6.67618 11.3609 12.752 -30.5525 -40.9307 67.6197 0.910484 -24.2763 0.195829 -10.7361 -0.499538 1.27651 -2.17216 21.504 -4.10073 -0.0 0.0 -0.0 3.13773 17.5641 -4.6521 -12.8529 12.0164 -60.547 1.23925 31.5439 -0.350029 -53.8652 4.53117 -4.86963 -1.78655 7.03433 15.2199 0.0 0.0 0.0 26.4554 23.4584 -11.3317 2.37158 -0.104901 -0.348763 -18.9286 7.10502 2.84556 29.9163 -0.0 -0.0 -0.0 0.0 -0.0 -11.9706 4.91369 4.30742 -22.6806 -0.254177 -3.44856 9.90478 16.2398 1.543 -19.68 0.0 0.0 0.0 0.0 0.0 
3011.71 716.392 -549.618 177.87 -55.554 -175.04 1.05387 -1.03751 -4.45306 1.06458 -0.752345 -4.50989 1.12692 0.121911 -4.57046 1.09828 -0.600683 -4.53254 -16.6037 15.1616 14.1198 -16.4788 21.1764 18.5719 -0.0 0.0 -0.0 5.81243 11.0921 11.2526 -26.2963 -42.4121 69.8255 0.898745 -23.9989 0.191029 -12.516 -0.605141 1.47827 -1.9758 20.8285 -3.2791 -0.0 0.0 -0.0 3.09787 18.3456 -4.49345 -14.1192 11.782 -60.4375 1.03972 27.25 -0.252023 -52.9365 4.41967 -4.8276 -1.37132 9.42091 13.3783 0.0 0.0 0.0 24.7131 24.0858 -10.3637 2.50122 -0.111051 -0.367702 -17.6529 8.42921 2.65107 28.2964 -0.0 -0.0 -0.0 0.0 -0.0 -10.4317 8.53541 4.1914 -26.1795 -0.171338 -3.97903 10.3977 11.4888 1.56411 -19.256 0.0 0.0 0.0 0.0 0.0 
3032.47 725.388 -546.869 177.381 -55.2924 -175.682 0.813333 -0.890762 -4.29964 0.823405 -0.615626 -4.34748 0.873575 0.244917 -4.38394 0.847046 -0.449843 -4.36771 -19.1211 13.8361 15.3926 -18.8764 18.6748 19.7414 -0.0 0.0 -0.0 5.51709 11.2288 10.7376 -22.1282 -42.4597 70.8276 0.842195 -22.6456 0.168639 -13.6382 -0.674932 1.60377 -2.3005 21.9447 -4.63028 -0.0 0.0 -0.0 2.94997 17.7608 -4.23197 -15.3932 11.5872 -61.1981 0.938695 24.9381 -0.207577 -51.6149 4.26219 -4.76468 -1.24502 10.861 13.1258 0.0 0.0 0.0 23.3048 24.3643 -9.5806 1.12336 -0.0478858 -0.165729 -15.3713 8.83533 2.30481 27.5619 -0.0 -0.0 -0.0 0.0 -0.0 -8.4392 12.0468 3.99319 -29.1757 -0.0747568 -4.42865 8.76849 7.03707 1.29568 -19.5247 0.0 0.0 0.0 0.0 0.0 
3047.64 730.765 -545.923 177.321 -54.6102 -175.867 0.807151 -0.775427 -4.2523 0.817066 -0.503527 -4.29292 0.858031 0.345677 -4.30848 0.832295 -0.338455 -4.30905 -20.9934 12.7348 15.7961 -20.6909 16.894 20.0351 -0.0 0.0 -0.0 5.3274 11.4921 10.407 -19.978 -42.049 70.9002 0.800223 -21.6236 0.152824 -14.373 -0.721965 1.68521 -2.46624 21.9036 -5.62065 -0.0 0.0 -0.0 2.78792 17.2642 -3.93259 -15.9402 11.427 -61.603 0.871376 23.3474 -0.18004 -50.5248 4.13341 -4.71007 -1.17157 11.4275 12.861 0.0 0.0 0.0 22.4603 24.7036 -9.21455 0.222253 -0.00921552 -0.0328615 -13.7235 9.59824 2.05498 26.7423 -0.0 -0.0 -0.0 0.0 -0.0 -7.06553 14.2884 3.5338 -31.3556 0.0102397 -4.75238 7.4878 3.83302 1.09668 -19.7601 0.0 0.0 0.0 0.0 0.0 
3074.98 737.441 -537.675 176.305 -53.1697 -176.122 1.09247 -0.705253 -4.21164 1.10223 -0.436074 -4.24789 1.13686 0.382459 -4.25305 1.11174 -0.293403 -4.2601 -22.1275 12.6438 14.6567 -22.005 17.5764 19.2259 -0.0 0.0 -0.0 4.58377 11.4713 9.12918 -19.7268 -41.2961 69.6603 0.89446 -23.8973 0.18929 -14.0304 -0.699908 1.64732 -2.36654 20.8487 -5.57645 -0.0 0.0 -0.0 2.22297 13.4102 -3.10002 -18.0631 13.6551 -61.5308 0.917617 24.4443 -0.198771 -49.2533 3.98454 -4.64328 -1.20798 10.9513 12.9083 0.0 0.0 0.0 19.6862 24.9653 -9.42006 0.429849 -0.0179386 -0.0635241 -11.732 10.4649 1.75366 25.5831 -0.0 -0.0 -0.0 0.0 -0.0 -4.33497 16.8166 1.87497 -35.2523 0.192667 -5.3223 4.79085 1.0491 0.701419 -19.7149 0.0 0.0 0.0 0.0 0.0 
